# WaveFront *.obj file (generated by Autodesk ATF)

mtllib a96c3f01-2ac0-47b2-981d-05b4ef477cb5.mtl

g Body1

v -199.000000 117.000000 25.000000
v -199.000000 149.000000 25.000000
v -199.004815 149.004815 25.098017
v -199.019215 149.019215 25.195090
v -199.076120 149.076120 25.382683
v -199.168530 149.168530 25.555570
v -199.292893 149.292893 25.707107
v -199.444430 149.444430 25.831470
v -199.617317 149.617317 25.923880
v -199.804910 149.804910 25.980785
v -200.000000 150.000000 26.000000
v -200.000000 116.000000 26.000000
v -199.804910 116.195090 25.980785
v -199.617317 116.382683 25.923880
v -199.444430 116.555570 25.831470
v -199.292893 116.707107 25.707107
v -199.168530 116.831470 25.555570
v -199.076120 116.923880 25.382683
v -199.019215 116.980785 25.195090
v -199.004815 116.995185 25.098017
v -183.461128 116.000000 26.000000
v -183.169068 116.029161 25.999990
v -182.881548 116.116496 25.993191
v -182.620399 116.258330 25.966036
v -182.402173 116.437651 25.899132
v -182.309592 116.540056 25.840362
v -182.228783 116.646158 25.761840
v -182.165634 116.743898 25.668290
v -182.119651 116.828968 25.558849
v -182.085607 116.901768 25.431950
v -182.063120 116.956209 25.292314
v -182.050728 116.989036 25.145939
v -182.046915 117.000000 25.000000
v -135.000000 149.000000 25.000000
v -134.995185 149.004815 25.098017
v -134.980785 149.019215 25.195090
v -134.923880 149.076120 25.382683
v -134.831470 149.168530 25.555570
v -134.707107 149.292893 25.707107
v -134.555570 149.444430 25.831470
v -134.382683 149.617317 25.923880
v -134.195090 149.804910 25.980785
v -134.000000 150.000000 26.000000
v -135.000000 117.000000 25.000000
v -134.995185 116.995185 25.098017
v -134.980785 116.980785 25.195090
v -134.923880 116.923880 25.382683
v -134.831470 116.831470 25.555570
v -134.707107 116.707107 25.707107
v -134.555570 116.555570 25.831470
v -134.382683 116.382683 25.923880
v -134.195090 116.195090 25.980785
v -134.000000 116.000000 26.000000
v -153.000002 117.000000 25.000000
v -152.996190 116.989036 25.145939
v -152.983797 116.956209 25.292314
v -152.961310 116.901768 25.431950
v -152.927266 116.828968 25.558849
v -152.881283 116.743898 25.668290
v -152.818134 116.646158 25.761840
v -152.737325 116.540056 25.840362
v -152.644744 116.437651 25.899132
v -152.426518 116.258330 25.966036
v -152.165369 116.116496 25.993191
v -151.877849 116.029161 25.999990
v -151.585789 116.000000 26.000000
v -153.000002 117.000000 7.000000
v -152.906662 116.789160 6.906660
v -152.782111 116.595117 6.782108
v -152.629291 116.422455 6.629289
v -152.451814 116.275255 6.451812
v -152.040147 116.070469 6.040145
v -151.585789 116.000000 5.585787
v -183.461128 116.000000 5.585787
v -183.006770 116.070469 6.040145
v -182.595103 116.275255 6.451812
v -182.417626 116.422455 6.629289
v -182.264806 116.595117 6.782108
v -182.140255 116.789160 6.906660
v -182.046915 117.000000 7.000000
v -200.000000 116.000000 0.000000
v -134.000000 116.000000 0.000000
v -199.000000 117.000000 1.000000
v -199.000000 149.000000 1.000000
v -135.000000 149.000000 1.000000
v -135.000000 117.000000 1.000000
v -200.000000 150.000000 0.000000
v -134.000000 150.000000 0.000000
vt 2.450000 0.078540 0.000000
vt -0.750000 0.078540 0.000000
vt 2.450482 0.068722 0.000000
vt -0.750482 0.068722 0.000000
vt 2.451921 0.058905 0.000000
vt -0.751921 0.058905 0.000000
vt -0.757612 0.039270 0.000000
vt 2.457612 0.039270 0.000000
vt -0.766853 0.019635 0.000000
vt 2.466853 0.019635 0.000000
vt 2.479289 -0.000000 0.000000
vt -0.779289 -0.000000 0.000000
vt 2.494443 -0.019635 0.000000
vt -0.794443 -0.019635 0.000000
vt -0.811732 -0.039270 0.000000
vt 2.511732 -0.039270 0.000000
vt -0.830491 -0.058905 0.000000
vt 2.530491 -0.058905 0.000000
vt 2.550000 -0.078540 0.000000
vt -0.850000 -0.078540 0.000000
vt 0.003887 -0.078540 0.000000
vt 0.033093 -0.075625 0.000000
vt -1.650000 -0.078540 0.000000
vt 0.061845 -0.066864 0.000000
vt -1.630491 -0.058905 0.000000
vt 0.087960 -0.052410 0.000000
vt -1.611732 -0.039270 0.000000
vt 0.109783 -0.033241 0.000000
vt -1.594443 -0.019635 0.000000
vt 0.119041 -0.021421 0.000000
vt 0.127122 -0.008198 0.000000
vt -1.579289 -0.000000 0.000000
vt 0.133437 0.005349 0.000000
vt -1.566853 0.019635 0.000000
vt 0.138035 0.019223 0.000000
vt 0.141439 0.033869 0.000000
vt -1.557612 0.039270 0.000000
vt 0.143688 0.048872 0.000000
vt -1.551921 0.058905 0.000000
vt 0.144927 0.063890 0.000000
vt -1.550482 0.068722 0.000000
vt 0.145309 0.078540 0.000000
vt -1.550000 0.078540 0.000000
vt 4.850000 0.078540 0.000000
vt -1.550000 0.078540 0.000000
vt 4.850482 0.068722 0.000000
vt -1.550482 0.068722 0.000000
vt 4.851921 0.058905 0.000000
vt -1.551921 0.058905 0.000000
vt -1.557612 0.039270 0.000000
vt 4.857612 0.039270 0.000000
vt -1.566853 0.019635 0.000000
vt 4.866853 0.019635 0.000000
vt 4.879289 -0.000000 0.000000
vt -1.579289 -0.000000 0.000000
vt 4.894443 -0.019635 0.000000
vt -1.594443 -0.019635 0.000000
vt -1.611732 -0.039270 0.000000
vt 4.911732 -0.039270 0.000000
vt -1.630491 -0.058905 0.000000
vt 4.930491 -0.058905 0.000000
vt 4.950000 -0.078540 0.000000
vt -1.650000 -0.078540 0.000000
vt 2.450000 0.078540 0.000000
vt -0.750000 0.078540 0.000000
vt 2.450482 0.068722 0.000000
vt -0.750482 0.068722 0.000000
vt 2.451921 0.058905 0.000000
vt -0.751921 0.058905 0.000000
vt -0.757612 0.039270 0.000000
vt 2.457612 0.039270 0.000000
vt -0.766853 0.019635 0.000000
vt 2.466853 0.019635 0.000000
vt 2.479289 -0.000000 0.000000
vt -0.779289 -0.000000 0.000000
vt 2.494443 -0.019635 0.000000
vt -0.794443 -0.019635 0.000000
vt -0.811732 -0.039270 0.000000
vt 2.511732 -0.039270 0.000000
vt -0.830491 -0.058905 0.000000
vt 2.530491 -0.058905 0.000000
vt 2.550000 -0.078540 0.000000
vt -0.850000 -0.078540 0.000000
vt 4.850000 0.078540 0.000000
vt 3.050000 0.078540 0.000000
vt 4.850482 0.068722 0.000000
vt 3.050381 0.063890 0.000000
vt 4.851921 0.058905 0.000000
vt 3.051620 0.048872 0.000000
vt 4.857612 0.039270 0.000000
vt 3.053869 0.033869 0.000000
vt 4.866853 0.019635 0.000000
vt 3.057273 0.019223 0.000000
vt 3.061872 0.005349 0.000000
vt 4.879289 -0.000000 0.000000
vt 3.068187 -0.008198 0.000000
vt 4.894443 -0.019635 0.000000
vt 3.076267 -0.021421 0.000000
vt 3.085526 -0.033241 0.000000
vt 4.911732 -0.039270 0.000000
vt 3.107348 -0.052410 0.000000
vt 4.930491 -0.058905 0.000000
vt 3.133463 -0.066864 0.000000
vt 4.950000 -0.078540 0.000000
vt 3.162215 -0.075625 0.000000
vt 3.191421 -0.078540 0.000000
vt -1.300000 0.184644 0.000000
vt -1.299999 0.155241 0.000000
vt 0.741421 0.184644 0.000000
vt 0.695986 0.138483 0.000000
vt -1.299319 0.125137 0.000000
vt 0.654819 0.092322 0.000000
vt -1.296604 0.095366 0.000000
vt -1.289913 0.067074 0.000000
vt 0.637071 0.069241 0.000000
vt -1.284036 0.053261 0.000000
vt 0.621789 0.046161 0.000000
vt -1.276184 0.039912 0.000000
vt 0.609334 0.023080 0.000000
vt -1.266829 0.028270 0.000000
vt -1.255885 0.018598 0.000000
vt -1.243195 0.010560 0.000000
vt 0.600000 0.000000 0.000000
vt -1.229231 0.004669 0.000000
vt -1.214594 0.001161 0.000000
vt -1.200000 0.000000 0.000000
vt 2.150000 0.000000 0.000000
vt 2.164594 0.001161 0.000000
vt 0.350000 0.000000 0.000000
vt 2.179231 0.004669 0.000000
vt 2.193195 0.010560 0.000000
vt 0.340666 0.023080 0.000000
vt 2.205885 0.018598 0.000000
vt 2.216829 0.028270 0.000000
vt 2.226184 0.039912 0.000000
vt 0.328211 0.046161 0.000000
vt 2.234036 0.053261 0.000000
vt 0.312929 0.069241 0.000000
vt 2.239913 0.067074 0.000000
vt 0.295181 0.092322 0.000000
vt 2.246604 0.095366 0.000000
vt 2.249319 0.125137 0.000000
vt 0.254014 0.138483 0.000000
vt 2.249999 0.155241 0.000000
vt 0.208579 0.184644 0.000000
vt 2.250000 0.184644 0.000000
vt -2.350000 0.000000 0.000000
vt 0.554691 0.000000 0.000000
vt -2.359334 0.023080 0.000000
vt 0.564025 0.023080 0.000000
vt 0.576481 0.046161 0.000000
vt 0.591762 0.069241 0.000000
vt -2.387071 0.069241 0.000000
vt -2.371789 0.046161 0.000000
vt 0.609510 0.092322 0.000000
vt -2.404819 0.092322 0.000000
vt 0.650677 0.138483 0.000000
vt -2.445985 0.138483 0.000000
vt 0.696113 0.184644 0.000000
vt -2.491421 0.184644 0.000000
vt 4.841421 2.600000 0.000000
vt 4.841421 0.558579 0.000000
vt 6.600000 2.600000 0.000000
vt 6.600000 0.000000 0.000000
vt 0.000000 0.000000 0.000000
vt 1.653887 0.558579 0.000000
vt 0.000000 2.600000 0.000000
vt 1.653887 2.600000 0.000000
vt -0.100000 2.500000 0.000000
vt -3.300000 2.500000 0.000000
vt -0.100000 0.100000 0.000000
vt -3.300000 0.100000 0.000000
vt -0.100000 2.500000 0.000000
vt -6.500000 2.500000 0.000000
vt -0.100000 0.100000 0.000000
vt -6.500000 0.100000 0.000000
vt -0.100000 2.500000 0.000000
vt -3.300000 2.500000 0.000000
vt -0.100000 0.100000 0.000000
vt -3.300000 0.100000 0.000000
vt -1.795309 2.500000 0.000000
vt -1.795309 0.700000 0.000000
vt -0.100000 2.500000 0.000000
vt -0.100000 0.100000 0.000000
vt -4.700000 0.700000 0.000000
vt -6.500000 0.100000 0.000000
vt -6.500000 2.500000 0.000000
vt -4.700000 2.500000 0.000000
vt -3.200000 -1.600000 0.000000
vt 3.200000 -1.600000 0.000000
vt -3.200000 1.600000 0.000000
vt 3.200000 1.600000 0.000000
vt -0.000000 0.000000 0.000000
vt 3.400000 0.000000 0.000000
vt -0.000000 2.600000 0.000000
vt 3.400000 2.600000 0.000000
vt -0.000000 0.000000 0.000000
vt 6.600000 0.000000 0.000000
vt -0.000000 2.600000 0.000000
vt 6.600000 2.600000 0.000000
vt 0.000000 0.000000 0.000000
vt 3.400000 0.000000 0.000000
vt 0.000000 2.600000 0.000000
vt 3.400000 2.600000 0.000000
vt -3.300000 -1.700000 0.000000
vt 3.300000 -1.700000 0.000000
vt -3.300000 1.700000 0.000000
vt 3.300000 1.700000 0.000000
vn 0.100000 -0.000000 0.000000
vn 0.100000 -0.000000 0.000000
vn 0.099518 -0.000000 0.009802
vn 0.099518 -0.000000 0.009802
vn 0.098079 -0.000000 0.019509
vn 0.098079 -0.000000 0.019509
vn 0.092388 -0.000000 0.038268
vn 0.092388 -0.000000 0.038268
vn 0.083147 -0.000000 0.055557
vn 0.083147 -0.000000 0.055557
vn 0.070711 -0.000000 0.070711
vn 0.070711 -0.000000 0.070711
vn 0.055557 -0.000000 0.083147
vn 0.055557 -0.000000 0.083147
vn 0.038268 -0.000000 0.092388
vn 0.038268 -0.000000 0.092388
vn 0.019509 -0.000000 0.098079
vn 0.019509 -0.000000 0.098079
vn -0.000000 0.000000 0.100000
vn -0.000000 0.000000 0.100000
vn 0.000000 0.000000 0.100000
vn 0.000000 0.002915 0.099958
vn 0.000000 0.011650 0.099319
vn 0.000000 0.019509 0.098079
vn 0.000000 0.025834 0.096606
vn 0.000000 0.038268 0.092388
vn 0.000000 0.043766 0.089914
vn 0.000000 0.055557 0.083147
vn 0.000000 0.054063 0.084126
vn 0.000000 0.064683 0.076263
vn 0.000000 0.070711 0.070711
vn 0.000000 0.074390 0.066829
vn 0.000000 0.083147 0.055557
vn 0.000000 0.082918 0.055899
vn 0.000000 0.090187 0.043200
vn 0.000000 0.092388 0.038268
vn 0.000000 0.095631 0.029235
vn 0.000000 0.098079 0.019509
vn 0.000000 0.098929 0.014598
vn 0.000000 0.099518 0.009802
vn 0.000000 0.100000 0.000000
vn 0.000000 0.100000 0.000000
vn 0.000000 -0.100000 -0.000000
vn 0.000000 -0.100000 -0.000000
vn 0.000000 -0.099518 0.009802
vn 0.000000 -0.099518 0.009802
vn 0.000000 -0.098079 0.019509
vn 0.000000 -0.098079 0.019509
vn 0.000000 -0.092388 0.038268
vn 0.000000 -0.092388 0.038268
vn 0.000000 -0.083147 0.055557
vn 0.000000 -0.083147 0.055557
vn 0.000000 -0.070711 0.070711
vn 0.000000 -0.070711 0.070711
vn 0.000000 -0.055557 0.083147
vn 0.000000 -0.055557 0.083147
vn 0.000000 -0.038268 0.092388
vn 0.000000 -0.038268 0.092388
vn 0.000000 -0.019509 0.098079
vn 0.000000 -0.019509 0.098079
vn 0.000000 0.000000 0.100000
vn -0.100000 0.000000 -0.000000
vn -0.100000 0.000000 0.000000
vn -0.099518 0.000000 0.009802
vn -0.099518 0.000000 0.009802
vn -0.098079 0.000000 0.019509
vn -0.098079 0.000000 0.019509
vn -0.092388 0.000000 0.038268
vn -0.092388 0.000000 0.038268
vn -0.083147 0.000000 0.055557
vn -0.083147 0.000000 0.055557
vn -0.070711 0.000000 0.070711
vn -0.070711 0.000000 0.070711
vn -0.055557 0.000000 0.083147
vn -0.055557 0.000000 0.083147
vn -0.038268 0.000000 0.092388
vn -0.038268 0.000000 0.092388
vn -0.019509 0.000000 0.098079
vn -0.019509 0.000000 0.098079
vn 0.000000 0.000000 0.100000
vn 0.000000 0.100000 0.000000
vn 0.000000 0.100000 0.000000
vn 0.000000 0.099518 0.009802
vn 0.000000 0.098929 0.014598
vn 0.000000 0.098079 0.019509
vn 0.000000 0.095631 0.029235
vn 0.000000 0.092388 0.038268
vn 0.000000 0.090187 0.043200
vn 0.000000 0.083147 0.055557
vn 0.000000 0.082918 0.055899
vn 0.000000 0.074390 0.066829
vn 0.000000 0.070711 0.070711
vn 0.000000 0.064683 0.076263
vn 0.000000 0.055557 0.083147
vn 0.000000 0.054063 0.084126
vn 0.000000 0.043766 0.089914
vn 0.000000 0.038268 0.092388
vn 0.000000 0.025834 0.096606
vn 0.000000 0.019509 0.098079
vn 0.000000 0.011650 0.099319
vn 0.000000 0.002915 0.099958
vn 0.000000 0.000000 0.100000
vn 0.000000 -0.100000 0.000000
vn -0.019476 -0.098085 0.000000
vn 0.000000 -0.100000 0.000000
vn -0.030291 -0.095302 0.000000
vn -0.038639 -0.092234 0.000000
vn -0.057735 -0.081650 0.000000
vn -0.056066 -0.082804 0.000000
vn -0.070597 -0.070824 0.000000
vn -0.069567 -0.071836 0.000000
vn -0.076811 -0.064031 0.000000
vn -0.079755 -0.060326 0.000000
vn -0.082198 -0.056952 0.000000
vn -0.088058 -0.047389 0.000000
vn -0.086366 -0.050407 0.000000
vn -0.089435 -0.044737 0.000000
vn -0.091703 -0.039883 0.000000
vn -0.094281 -0.033333 0.000000
vn -0.093198 -0.036252 0.000000
vn -0.094020 -0.034062 0.000000
vn -0.094281 -0.033333 0.000000
vn 0.094281 -0.033333 0.000000
vn 0.094020 -0.034062 0.000000
vn 0.094281 -0.033333 0.000000
vn 0.093198 -0.036252 0.000000
vn 0.091703 -0.039883 0.000000
vn 0.088058 -0.047389 0.000000
vn 0.089435 -0.044737 0.000000
vn 0.086366 -0.050407 0.000000
vn 0.082198 -0.056952 0.000000
vn 0.079755 -0.060326 0.000000
vn 0.076811 -0.064031 0.000000
vn 0.069567 -0.071836 0.000000
vn 0.070597 -0.070824 0.000000
vn 0.057735 -0.081650 0.000000
vn 0.056066 -0.082804 0.000000
vn 0.038639 -0.092234 0.000000
vn 0.030291 -0.095302 0.000000
vn 0.019476 -0.098085 0.000000
vn -0.000000 -0.100000 0.000000
vn -0.000000 -0.100000 0.000000
vn 0.000000 -0.033333 0.094281
vn 0.000000 -0.033333 0.094281
vn 0.000000 -0.047389 0.088058
vn 0.000000 -0.047389 0.088058
vn 0.000000 -0.060326 0.079755
vn 0.000000 -0.071836 0.069567
vn 0.000000 -0.071836 0.069567
vn 0.000000 -0.060326 0.079755
vn 0.000000 -0.081650 0.057735
vn 0.000000 -0.081650 0.057735
vn 0.000000 -0.095302 0.030291
vn 0.000000 -0.095302 0.030291
vn 0.000000 -0.100000 0.000000
vn 0.000000 -0.100000 0.000000
vn 0.000000 -0.100000 0.000000
vn 0.000000 -0.100000 0.000000
vn 0.100000 0.000000 0.000000
vn 0.100000 0.000000 0.000000
vn 0.000000 -0.100000 0.000000
vn 0.000000 -0.100000 0.000000
vn -0.100000 0.000000 0.000000
vn -0.100000 0.000000 0.000000
vn -0.000000 0.100000 -0.000000
vn -0.000000 0.100000 -0.000000
vn -0.000000 0.100000 -0.000000
vn -0.000000 0.100000 -0.000000
vn 0.000000 -0.000000 0.100000
vn 0.000000 -0.000000 0.100000
vn 0.000000 -0.000000 0.100000
vn 0.000000 -0.000000 0.100000
vn -0.100000 0.000000 0.000000
vn -0.100000 0.000000 0.000000
vn -0.100000 0.000000 0.000000
vn -0.100000 0.000000 0.000000
vn 0.000000 0.100000 0.000000
vn 0.000000 0.100000 0.000000
vn 0.000000 0.100000 0.000000
vn 0.000000 0.100000 0.000000
vn 0.100000 0.000000 0.000000
vn 0.100000 0.000000 0.000000
vn 0.100000 0.000000 0.000000
vn 0.100000 0.000000 0.000000
vn -0.000000 0.000000 -0.100000
vn -0.000000 0.000000 -0.100000
vn -0.000000 0.000000 -0.100000
vn -0.000000 0.000000 -0.100000
usemtl Steel_-_Satin
f 1/1/1 2/2/2 20/3/3
f 20/3/3 2/2/2 3/4/4
f 20/3/3 3/4/4 19/5/5
f 19/5/5 3/4/4 4/6/6
f 19/5/5 4/6/6 5/7/7
f 19/5/5 5/7/7 18/8/8
f 18/8/8 5/7/7 6/9/9
f 18/8/8 6/9/9 17/10/10
f 17/10/10 6/9/9 16/11/11
f 16/11/11 6/9/9 7/12/12
f 16/11/11 7/12/12 15/13/13
f 15/13/13 7/12/12 8/14/14
f 15/13/13 8/14/14 9/15/15
f 15/13/13 9/15/15 14/16/16
f 14/16/16 9/15/15 10/17/17
f 14/16/16 10/17/17 13/18/18
f 13/18/18 10/17/17 12/19/19
f 12/19/19 10/17/17 11/20/20
f 21/21/21 22/22/22 12/23/19
f 12/23/19 22/22/22 23/24/23
f 12/23/19 23/24/23 13/25/24
f 13/25/24 23/24/23 24/26/25
f 13/25/24 24/26/25 14/27/26
f 14/27/26 24/26/25 25/28/27
f 14/27/26 25/28/27 15/29/28
f 15/29/28 25/28/27 26/30/29
f 15/29/28 26/30/29 27/31/30
f 15/29/28 27/31/30 16/32/31
f 16/32/31 27/31/30 28/33/32
f 16/32/31 28/33/32 17/34/33
f 17/34/33 28/33/32 29/35/34
f 17/34/33 29/35/34 30/36/35
f 17/34/33 30/36/35 18/37/36
f 18/37/36 30/36/35 31/38/37
f 18/37/36 31/38/37 19/39/38
f 19/39/38 31/38/37 32/40/39
f 19/39/38 32/40/39 20/41/40
f 20/41/40 32/40/39 33/42/41
f 20/41/40 33/42/41 1/43/42
f 2/44/43 34/45/44 3/46/45
f 3/46/45 34/45/44 35/47/46
f 3/46/45 35/47/46 4/48/47
f 4/48/47 35/47/46 36/49/48
f 4/48/47 36/49/48 37/50/49
f 4/48/47 37/50/49 5/51/50
f 5/51/50 37/50/49 38/52/51
f 5/51/50 38/52/51 6/53/52
f 6/53/52 38/52/51 7/54/53
f 7/54/53 38/52/51 39/55/54
f 7/54/53 39/55/54 8/56/55
f 8/56/55 39/55/54 40/57/56
f 8/56/55 40/57/56 41/58/57
f 8/56/55 41/58/57 9/59/58
f 9/59/58 41/58/57 42/60/59
f 9/59/58 42/60/59 10/61/60
f 10/61/60 42/60/59 11/62/20
f 11/62/20 42/60/59 43/63/61
f 34/64/62 44/65/63 35/66/64
f 35/66/64 44/65/63 45/67/65
f 35/66/64 45/67/65 36/68/66
f 36/68/66 45/67/65 46/69/67
f 36/68/66 46/69/67 47/70/68
f 36/68/66 47/70/68 37/71/69
f 37/71/69 47/70/68 48/72/70
f 37/71/69 48/72/70 38/73/71
f 38/73/71 48/72/70 39/74/72
f 39/74/72 48/72/70 49/75/73
f 39/74/72 49/75/73 40/76/74
f 40/76/74 49/75/73 50/77/75
f 40/76/74 50/77/75 51/78/76
f 40/76/74 51/78/76 41/79/77
f 41/79/77 51/78/76 52/80/78
f 41/79/77 52/80/78 42/81/79
f 42/81/79 52/80/78 43/82/61
f 43/82/61 52/80/78 53/83/80
f 44/84/81 54/85/82 45/86/83
f 45/86/83 54/85/82 55/87/84
f 45/86/83 55/87/84 46/88/85
f 46/88/85 55/87/84 56/89/86
f 46/88/85 56/89/86 47/90/87
f 47/90/87 56/89/86 57/91/88
f 47/90/87 57/91/88 48/92/89
f 48/92/89 57/91/88 58/93/90
f 48/92/89 58/93/90 59/94/91
f 48/92/89 59/94/91 49/95/92
f 49/95/92 59/94/91 60/96/93
f 49/95/92 60/96/93 50/97/94
f 50/97/94 60/96/93 61/98/95
f 50/97/94 61/98/95 62/99/96
f 50/97/94 62/99/96 51/100/97
f 51/100/97 62/99/96 63/101/98
f 51/100/97 63/101/98 52/102/99
f 52/102/99 63/101/98 64/103/100
f 52/102/99 64/103/100 53/104/80
f 53/104/80 64/103/100 65/105/101
f 53/104/80 65/105/101 66/106/102
f 66/107/103 65/108/104 73/109/105
f 73/109/105 65/108/104 72/110/106
f 72/110/106 65/108/104 64/111/107
f 72/110/106 64/111/107 71/112/108
f 71/112/108 64/111/107 63/113/109
f 71/112/108 63/113/109 62/114/110
f 71/112/108 62/114/110 70/115/111
f 70/115/111 62/114/110 61/116/112
f 70/115/111 61/116/112 69/117/113
f 69/117/113 61/116/112 60/118/114
f 69/117/113 60/118/114 68/119/115
f 68/119/115 60/118/114 59/120/116
f 68/119/115 59/120/116 58/121/117
f 58/121/117 57/122/118 68/119/115
f 68/119/115 57/122/118 67/123/119
f 67/123/119 57/122/118 56/124/120
f 67/123/119 56/124/120 55/125/121
f 55/125/121 54/126/122 67/123/119
f 33/127/123 32/128/124 80/129/125
f 80/129/125 32/128/124 31/130/126
f 80/129/125 31/130/126 30/131/127
f 80/129/125 30/131/127 79/132/128
f 79/132/128 30/131/127 29/133/129
f 79/132/128 29/133/129 28/134/130
f 28/134/130 27/135/131 79/132/128
f 79/132/128 27/135/131 78/136/132
f 78/136/132 27/135/131 26/137/133
f 78/136/132 26/137/133 77/138/134
f 77/138/134 26/137/133 25/139/135
f 77/138/134 25/139/135 76/140/136
f 76/140/136 25/139/135 24/141/137
f 76/140/136 24/141/137 23/142/138
f 76/140/136 23/142/138 75/143/139
f 75/143/139 23/142/138 22/144/140
f 75/143/139 22/144/140 74/145/141
f 74/145/141 22/144/140 21/146/142
f 67/147/143 80/148/144 68/149/145
f 68/149/145 80/148/144 79/150/146
f 68/149/145 79/150/146 78/151/147
f 77/152/148 70/153/149 78/151/147
f 78/151/147 70/153/149 69/154/150
f 78/151/147 69/154/150 68/149/145
f 77/152/148 76/155/151 70/153/149
f 70/153/149 76/155/151 71/156/152
f 71/156/152 76/155/151 75/157/153
f 71/156/152 75/157/153 72/158/154
f 72/158/154 75/157/153 74/159/141
f 72/158/154 74/159/141 73/160/105
f 66/161/103 73/162/105 53/163/155
f 53/163/155 73/162/105 82/164/156
f 82/164/156 73/162/105 81/165/157
f 81/165/157 73/162/105 74/166/141
f 81/165/157 74/166/141 12/167/158
f 12/167/158 74/166/141 21/168/142
f 2/169/2 1/170/1 84/171/159
f 84/171/159 1/170/1 83/172/160
f 34/173/44 2/174/43 85/175/161
f 85/175/161 2/174/43 84/176/162
f 44/177/63 34/178/62 86/179/163
f 86/179/163 34/178/62 85/180/164
f 33/181/41 80/182/165 1/183/42
f 1/183/42 80/182/165 83/184/166
f 83/184/166 80/182/165 67/185/167
f 83/184/166 67/185/167 86/186/168
f 86/186/168 67/185/167 44/187/81
f 44/187/81 67/185/167 54/188/82
f 83/189/169 86/190/170 84/191/171
f 84/191/171 86/190/170 85/192/172
f 87/193/173 81/194/174 11/195/175
f 11/195/175 81/194/174 12/196/176
f 88/197/177 87/198/178 43/199/179
f 43/199/179 87/198/178 11/200/180
f 82/201/181 88/202/182 53/203/183
f 53/203/183 88/202/182 43/204/184
f 82/205/185 81/206/186 88/207/187
f 88/207/187 81/206/186 87/208/188
# 88 vertices
# 208 texture params
# 188 normals
# 172 facets

# 1 groups
